<svg width="80" height="40" viewBox="0 0 80 40" fill="none" xmlns="http://www.w3.org/2000/svg">
<rect width="80" height="40" rx="20" fill="black"/>
<path d="M44.125 9C42.972 9.067 41.6483 9.70934 40.8613 10.5273C40.1503 11.2713 39.5894 12.3763 39.8184 13.4453C41.0714 13.4783 42.329 12.8193 43.082 11.9863C43.785 11.2073 44.318 10.12 44.125 9ZM44.1934 13.4434C42.3844 13.4434 41.628 14.5547 40.375 14.5547C39.086 14.5547 37.9077 13.5137 36.3477 13.5137C34.2257 13.5147 31 15.4803 31 20.1113C31 24.3243 34.8177 29 36.9727 29C38.2817 29.013 38.599 28.177 40.375 28.168C42.153 28.155 42.5367 29.011 43.8477 29C45.3237 28.989 46.4764 27.367 47.3184 26.082C47.9224 25.162 48.1707 24.6923 48.6387 23.6523C45.1657 22.7723 44.4747 17.1717 48.6387 16.0137C47.8527 14.6727 45.5584 13.4434 44.1934 13.4434Z" fill="white"/>
</svg>
