<svg width="16" height="16" viewBox="0 0 16 16" fill="none" xmlns="http://www.w3.org/2000/svg">
<path d="M3.99998 3.70001H4.49998V3.20001V2.40001C4.49998 2.32044 4.53158 2.24414 4.58784 2.18787C4.6441 2.13161 4.72041 2.10001 4.79998 2.10001C4.87954 2.10001 4.95585 2.13161 5.01211 2.18787C5.06837 2.24414 5.09998 2.32044 5.09998 2.40001V3.20001V3.70001H5.59998H10.4H10.9V3.20001V2.40001C10.9 2.32044 10.9316 2.24414 10.9878 2.18787C11.0441 2.13161 11.1204 2.10001 11.2 2.10001C11.2795 2.10001 11.3558 2.13161 11.4121 2.18787C11.4684 2.24414 11.5 2.32044 11.5 2.40001V3.20001V3.70001H12H12.8C13.0917 3.70001 13.3715 3.8159 13.5778 4.02219L13.9313 3.66864L13.5778 4.02219C13.7841 4.22848 13.9 4.50827 13.9 4.80001V12.8C13.9 13.0917 13.7841 13.3715 13.5778 13.5778C13.3715 13.7841 13.0917 13.9 12.8 13.9H3.19998C2.90824 13.9 2.62845 13.7841 2.42216 13.5778C2.21587 13.3715 2.09998 13.0917 2.09998 12.8V4.80001C2.09998 4.50827 2.21587 4.22848 2.42216 4.02219C2.62845 3.8159 2.90824 3.70001 3.19998 3.70001H3.99998ZM4.79998 5.10001C4.45519 5.10001 4.12453 5.23697 3.88074 5.48077C3.63694 5.72456 3.49998 6.05522 3.49998 6.40001C3.49998 6.74479 3.63694 7.07545 3.88074 7.31924C4.12453 7.56304 4.45519 7.70001 4.79998 7.70001H11.2C11.5448 7.70001 11.8754 7.56304 12.1192 7.31924C12.363 7.07545 12.5 6.74479 12.5 6.40001C12.5 6.05522 12.363 5.72456 12.1192 5.48077C11.8754 5.23697 11.5448 5.10001 11.2 5.10001H4.79998Z" fill="#9E9E9E" stroke="#9E9E9E"/>
</svg>
