<svg width="16" height="16" viewBox="0 0 16 16" fill="none" xmlns="http://www.w3.org/2000/svg">
<mask id="path-1-inside-1_66_12803" fill="white">
<path d="M8.94114 6.03923C8.94114 7.34119 7.89016 8.39217 6.58819 8.39217V14.6667H5.01957V8.39217C3.71761 8.39217 2.66663 7.34119 2.66663 6.03923V1.33334H4.23525V6.03923H5.01957V1.33334H6.58819V6.03923H7.37251V1.33334H8.94114V6.03923ZM12.8627 14.6667H11.2941V9.17648H9.72545V4.4706C9.72545 2.74511 11.1372 1.33334 12.8627 1.33334V14.6667Z"/>
</mask>
<path d="M8.94114 6.03923C8.94114 7.34119 7.89016 8.39217 6.58819 8.39217V14.6667H5.01957V8.39217C3.71761 8.39217 2.66663 7.34119 2.66663 6.03923V1.33334H4.23525V6.03923H5.01957V1.33334H6.58819V6.03923H7.37251V1.33334H8.94114V6.03923ZM12.8627 14.6667H11.2941V9.17648H9.72545V4.4706C9.72545 2.74511 11.1372 1.33334 12.8627 1.33334V14.6667Z" fill="#9E9E9E"/>
<path d="M6.58819 8.39217V0.392167H-1.41181V8.39217H6.58819ZM6.58819 14.6667V22.6667H14.5882V14.6667H6.58819ZM5.01957 14.6667H-2.98043V22.6667H5.01957V14.6667ZM5.01957 8.39217H13.0196V0.392167H5.01957V8.39217ZM2.66663 1.33334V-6.66666H-5.33337V1.33334H2.66663ZM4.23525 1.33334H12.2353V-6.66666H4.23525V1.33334ZM4.23525 6.03923H-3.76475V14.0392H4.23525V6.03923ZM5.01957 6.03923V14.0392H13.0196V6.03923H5.01957ZM5.01957 1.33334V-6.66666H-2.98043V1.33334H5.01957ZM6.58819 1.33334H14.5882V-6.66666H6.58819V1.33334ZM6.58819 6.03923H-1.41181V14.0392H6.58819V6.03923ZM7.37251 6.03923V14.0392H15.3725V6.03923H7.37251ZM7.37251 1.33334V-6.66666H-0.627491V1.33334H7.37251ZM8.94114 1.33334H16.9411V-6.66666H8.94114V1.33334ZM12.8627 14.6667V22.6667H20.8627V14.6667H12.8627ZM11.2941 14.6667H3.29408V22.6667H11.2941V14.6667ZM11.2941 9.17648H19.2941V1.17648H11.2941V9.17648ZM9.72545 9.17648H1.72545V17.1765H9.72545V9.17648ZM12.8627 1.33334H20.8627V-6.66666H12.8627V1.33334ZM0.941136 6.03923C0.941136 2.92291 3.47188 0.392167 6.58819 0.392167V16.3922C12.3084 16.3922 16.9411 11.7595 16.9411 6.03923H0.941136ZM-1.41181 8.39217V14.6667H14.5882V8.39217H-1.41181ZM6.58819 6.66668H5.01957V22.6667H6.58819V6.66668ZM13.0196 14.6667V8.39217H-2.98043V14.6667H13.0196ZM5.01957 0.392167C8.13588 0.392167 10.6666 2.92291 10.6666 6.03923H-5.33337C-5.33337 11.7595 -0.700672 16.3922 5.01957 16.3922V0.392167ZM10.6666 6.03923V1.33334H-5.33337V6.03923H10.6666ZM2.66663 9.33334H4.23525V-6.66666H2.66663V9.33334ZM-3.76475 1.33334V6.03923H12.2353V1.33334H-3.76475ZM4.23525 14.0392H5.01957V-1.96077H4.23525V14.0392ZM13.0196 6.03923V1.33334H-2.98043V6.03923H13.0196ZM5.01957 9.33334H6.58819V-6.66666H5.01957V9.33334ZM-1.41181 1.33334V6.03923H14.5882V1.33334H-1.41181ZM6.58819 14.0392H7.37251V-1.96077H6.58819V14.0392ZM15.3725 6.03923V1.33334H-0.627491V6.03923H15.3725ZM7.37251 9.33334H8.94114V-6.66666H7.37251V9.33334ZM0.941136 1.33334V6.03923H16.9411V1.33334H0.941136ZM12.8627 6.66668H11.2941V22.6667H12.8627V6.66668ZM19.2941 14.6667V9.17648H3.29408V14.6667H19.2941ZM11.2941 1.17648H9.72545V17.1765H11.2941V1.17648ZM17.7254 9.17648V4.4706H1.72545V9.17648H17.7254ZM17.7254 4.4706C17.7254 7.16339 15.5555 9.33334 12.8627 9.33334V-6.66666C6.71894 -6.66666 1.72545 -1.67317 1.72545 4.4706H17.7254ZM4.8627 1.33334V14.6667H20.8627V1.33334H4.8627Z" fill="#9E9E9E" mask="url(#path-1-inside-1_66_12803)"/>
</svg>
