<svg width="16" height="16" viewBox="0 0 16 16" fill="none" xmlns="http://www.w3.org/2000/svg">
<path d="M13.5842 6.12587L13.8334 5.98138V5.69332V3.99999V3.49999H13.3334H8.08163L8.0026 3.29741L7.9227 3.49999H2.66671H2.16473L2.16671 4.00196L2.17338 5.69529L2.17451 5.98204L2.42257 6.12587C3.06729 6.4997 3.50004 7.19805 3.50004 7.99999C3.50004 8.7936 3.06212 9.49941 2.4159 9.87411L2.16671 10.0186V10.3067V12V12.5H2.66671H13.3334H13.8334V12V10.3067V10.0186L13.5842 9.87411C12.938 9.49941 12.5 8.7936 12.5 7.99999C12.5 7.20638 12.938 6.50057 13.5842 6.12587ZM8.27006 8.9925L8.00004 8.81925L7.73003 8.9925L6.85384 9.5547L7.11715 8.54632L7.19819 8.23599L6.94991 8.03295L6.1457 7.37522L7.18358 7.31241L7.5016 7.29316L7.6185 6.99677L7.99748 6.03591L8.37423 7.0017L8.4905 7.29975L8.80984 7.31908L9.84772 7.38189L9.0435 8.03961L8.79427 8.24345L8.87671 8.55468L9.14064 9.5511L8.27006 8.9925ZM14.1667 3.99999V6.23619C13.3988 6.45484 12.8334 7.16372 12.8334 7.99999C12.8334 8.83626 13.3988 9.54514 14.1667 9.76378V12C14.1667 12.4572 13.7906 12.8333 13.3334 12.8333H2.66671C2.20952 12.8333 1.83337 12.4572 1.83337 12V9.76449C2.60558 9.54648 3.16671 8.83597 3.16671 7.99999C3.16671 7.1662 2.60782 6.45538 1.84004 6.23625V3.99999C1.84004 3.53953 2.21277 3.16666 2.66671 3.16666H13.3334C13.7906 3.16666 14.1667 3.5428 14.1667 3.99999Z" fill="#9E9E9E" stroke="#9E9E9E"/>
</svg>
