<svg width="80" height="40" viewBox="0 0 80 40" fill="none" xmlns="http://www.w3.org/2000/svg">
<rect width="80" height="40" rx="20" fill="#1877F2"/>
<g clip-path="url(#clip0_66_11716)">
<path d="M52.0102 19.9995C52.0102 16.8171 50.746 13.7649 48.4956 11.5146C46.2453 9.26424 43.1931 8.00001 40.0106 8.00001C36.9891 7.99721 34.0777 9.13446 31.858 11.1846C29.6383 13.2347 28.2738 16.0468 28.0369 19.059C27.8001 22.0713 28.7084 25.0621 30.5805 27.4339C32.4525 29.8057 35.1504 31.3839 38.1353 31.8534V23.4674H35.0908V19.9995H38.137V17.3562C38.137 14.3495 39.9284 12.6867 42.6694 12.6867C43.9825 12.6867 45.3556 12.9215 45.3556 12.9215V15.8751H43.8419C42.3506 15.8751 41.8877 16.8008 41.8877 17.7488V19.9995H45.215L44.6836 23.4674H41.886V31.8534C44.7085 31.4064 47.2788 29.967 49.1347 27.794C50.9906 25.6211 52.0103 22.8572 52.0102 19.9995Z" fill="#1877F2"/>
<path d="M44.6819 23.4674L45.2133 19.9995H41.886V17.7487C41.886 16.8007 42.3488 15.8751 43.8402 15.8751H45.3539V12.9198C45.3539 12.9198 43.9808 12.6849 42.6677 12.6849C39.9249 12.6849 38.1353 14.3477 38.1353 17.3544V19.9995H35.0908V23.4674H38.137V31.8533C39.3796 32.0489 40.6451 32.0489 41.8877 31.8533V23.4674H44.6819Z" fill="#F1F1F1"/>
</g>
<defs>
<clipPath id="clip0_66_11716">
<rect width="24" height="24" fill="white" transform="translate(28 8)"/>
</clipPath>
</defs>
</svg>
