<svg width="80" height="40" viewBox="0 0 80 40" fill="none" xmlns="http://www.w3.org/2000/svg">
<rect width="80" height="40" rx="20" fill="#F34A38"/>
<g clip-path="url(#clip0_66_11695)">
<path fill-rule="evenodd" clip-rule="evenodd" d="M34.303 20C34.303 19.3649 34.4085 18.756 34.5968 18.1849L31.3015 15.6684C30.6592 16.9724 30.2974 18.4418 30.2974 20C30.2974 21.5569 30.6588 23.0253 31.3001 24.3284L34.5937 21.8071C34.4072 21.2386 34.303 20.632 34.303 20Z" fill="white"/>
<path fill-rule="evenodd" clip-rule="evenodd" d="M40.089 14.2222C41.4687 14.2222 42.7149 14.7111 43.6941 15.5111L46.5426 12.6667C44.8068 11.1556 42.5814 10.2222 40.089 10.2222C36.2195 10.2222 32.8939 12.4351 31.3014 15.6685L34.5967 18.1849C35.356 15.88 37.5204 14.2222 40.089 14.2222Z" fill="white"/>
<path fill-rule="evenodd" clip-rule="evenodd" d="M40.089 25.7778C37.5204 25.7778 35.356 24.12 34.5967 21.8151L31.3014 24.3311C32.8939 27.5649 36.2195 29.7778 40.089 29.7778C42.4772 29.7778 44.7574 28.9298 46.4687 27.3409L43.3407 24.9226C42.4581 25.4786 41.3468 25.7778 40.089 25.7778Z" fill="white"/>
<path fill-rule="evenodd" clip-rule="evenodd" d="M49.4356 20C49.4356 19.4222 49.3466 18.8 49.213 18.2222H40.089V22H45.3409C45.0783 23.288 44.3635 24.2782 43.3407 24.9227L46.4687 27.3409C48.2664 25.6725 49.4356 23.1871 49.4356 20Z" fill="white"/>
</g>
<defs>
<clipPath id="clip0_66_11695">
<rect width="20" height="20" fill="white" transform="translate(30 10)"/>
</clipPath>
</defs>
</svg>
