<svg width="18" height="18" viewBox="0 0 18 18" fill="none" xmlns="http://www.w3.org/2000/svg">
<rect width="18" height="18" rx="4" fill="#F59A30"/>
<path fill-rule="evenodd" clip-rule="evenodd" d="M13.6949 5.7051C13.8261 5.83637 13.8998 6.01439 13.8998 6.2C13.8998 6.38562 13.8261 6.56363 13.6949 6.6949L8.0949 12.2949C7.96363 12.4261 7.78561 12.4999 7.6 12.4999C7.41438 12.4999 7.23636 12.4261 7.1051 12.2949L4.3051 9.4949C4.17758 9.36288 4.10703 9.18606 4.10862 9.00252C4.11022 8.81898 4.18384 8.64342 4.31362 8.51363C4.44341 8.38384 4.61898 8.31023 4.80251 8.30863C4.98605 8.30704 5.16287 8.37759 5.29489 8.5051L7.6 10.8102L12.7051 5.7051C12.8364 5.57387 13.0144 5.50015 13.2 5.50015C13.3856 5.50015 13.5636 5.57387 13.6949 5.7051Z" fill="white"/>
</svg>
