<svg width="16" height="16" viewBox="0 0 16 16" fill="none" xmlns="http://www.w3.org/2000/svg">
<path d="M4.39348 3.59356L4.39349 3.59354C5.34998 2.63705 6.64726 2.0997 7.99994 2.0997C9.35262 2.0997 10.6499 2.63705 11.6064 3.59354C12.5629 4.55003 13.1002 5.84731 13.1002 7.19999C13.1002 8.55267 12.5629 9.84994 11.6064 10.8064L7.99994 14.4129L4.39349 10.8064L4.39348 10.8064C3.91984 10.3328 3.54413 9.77059 3.2878 9.15179C3.03147 8.533 2.89954 7.86977 2.89954 7.19999C2.89954 6.5302 3.03147 5.86697 3.2878 5.24818C3.54413 4.62939 3.91984 4.06714 4.39348 3.59356ZM7.99994 9.29999C8.55689 9.29999 9.09104 9.07874 9.48486 8.68491C9.87869 8.29108 10.0999 7.75694 10.0999 7.19999C10.0999 6.64303 9.87869 6.10889 9.48486 5.71506C9.09104 5.32124 8.55689 5.09999 7.99994 5.09999C7.44299 5.09999 6.90884 5.32124 6.51502 5.71506C6.12119 6.10889 5.89994 6.64303 5.89994 7.19999C5.89994 7.75694 6.12119 8.29108 6.51502 8.68491C6.90884 9.07874 7.44299 9.29999 7.99994 9.29999Z" fill="#BDBDBD" stroke="#BDBDBD"/>
</svg>
