<svg width="16" height="16" viewBox="0 0 16 16" fill="none" xmlns="http://www.w3.org/2000/svg">
<path d="M3.99999 7.7H4.49999V7.2V5.6C4.49999 4.67174 4.86874 3.7815 5.52512 3.12512C6.1815 2.46875 7.07174 2.1 7.99999 2.1C8.92825 2.1 9.81849 2.46875 10.4749 3.12512C11.1312 3.7815 11.5 4.67174 11.5 5.6V7.2V7.7H12C12.2917 7.7 12.5715 7.81589 12.7778 8.02218C12.9841 8.22847 13.1 8.50826 13.1 8.8V12.8C13.1 13.0917 12.9841 13.3715 12.7778 13.5778C12.5715 13.7841 12.2917 13.9 12 13.9H3.99999C3.70826 13.9 3.42847 13.7841 3.22218 13.5778C3.01589 13.3715 2.89999 13.0917 2.89999 12.8V8.8C2.89999 8.50826 3.01589 8.22847 3.22218 8.02218L2.86862 7.66863L3.22218 8.02218C3.42847 7.81589 3.70826 7.7 3.99999 7.7ZM10.4 7.7H10.9V7.2V5.6C10.9 4.83087 10.5945 4.09324 10.0506 3.54939C9.50675 3.00553 8.76912 2.7 7.99999 2.7C7.23087 2.7 6.49324 3.00553 5.94938 3.54939C5.40553 4.09324 5.09999 4.83087 5.09999 5.6V7.2V7.7H5.59999H10.4Z" fill="#BDBDBD" stroke="#BDBDBD"/>
</svg>
