<svg width="16" height="16" viewBox="0 0 16 16" fill="none" xmlns="http://www.w3.org/2000/svg">
<path d="M12.8 3.7L12.8001 3.7C13.0808 3.69995 13.351 3.80723 13.5552 3.99988C13.6823 4.11983 13.7779 4.26722 13.8359 4.42903L8.00002 7.3466L2.16416 4.42903C2.22213 4.26722 2.31773 4.11983 2.44487 3.99988C2.64907 3.80723 2.9192 3.69995 3.19993 3.7H3.20002L12.8 3.7Z" fill="#BDBDBD" stroke="#BDBDBD"/>
<path d="M14.4 6.4944L7.99998 9.6944L1.59998 6.4944V11.2C1.59998 11.6243 1.76855 12.0313 2.0686 12.3314C2.36866 12.6314 2.77563 12.8 3.19998 12.8H12.8C13.2243 12.8 13.6313 12.6314 13.9313 12.3314C14.2314 12.0313 14.4 11.6243 14.4 11.2V6.4944Z" fill="#BDBDBD"/>
</svg>
