<svg width="16" height="16" viewBox="0 0 16 16" fill="none" xmlns="http://www.w3.org/2000/svg">
<path d="M1.59998 2.4C1.59998 2.18783 1.68426 1.98434 1.83429 1.83431C1.98432 1.68428 2.1878 1.6 2.39998 1.6H4.12238C4.31174 1.60009 4.49493 1.66734 4.63937 1.78981C4.78381 1.91227 4.88012 2.082 4.91118 2.2688L5.50318 5.8168C5.53146 5.98577 5.50476 6.15936 5.42699 6.31202C5.34922 6.46468 5.22449 6.58834 5.07118 6.6648L3.83278 7.2832C4.27686 8.38372 4.93824 9.38342 5.7774 10.2226C6.61655 11.0617 7.61625 11.7231 8.71677 12.1672L9.33598 10.9288C9.41239 10.7756 9.53592 10.651 9.68842 10.5732C9.84091 10.4955 10.0143 10.4687 10.1832 10.4968L13.7312 11.0888C13.918 11.1199 14.0877 11.2162 14.2102 11.3606C14.3326 11.505 14.3999 11.6882 14.4 11.8776V13.6C14.4 13.8122 14.3157 14.0157 14.1657 14.1657C14.0156 14.3157 13.8121 14.4 13.6 14.4H12C6.25598 14.4 1.59998 9.744 1.59998 4V2.4Z" fill="#9E9E9E"/>
</svg>
