<svg width="40" height="40" viewBox="0 0 40 40" fill="none" xmlns="http://www.w3.org/2000/svg">
<rect width="40" height="40" rx="20" fill="#31B2F7"/>
<path d="M28.9363 21.0728C29.1354 20.9731 29.3027 20.8199 29.4197 20.6304C29.5367 20.441 29.5986 20.2227 29.5986 20C29.5986 19.7774 29.5367 19.5591 29.4197 19.3696C29.3027 19.1802 29.1354 19.027 28.9363 18.9272L12.1363 10.5272C11.928 10.423 11.6939 10.3817 11.4625 10.4082C11.2311 10.4348 11.0124 10.5281 10.8331 10.6769C10.6539 10.8256 10.5218 11.0233 10.4529 11.2458C10.3841 11.4683 10.3815 11.7061 10.4455 11.93L12.1603 17.93C12.232 18.1808 12.3835 18.4014 12.5918 18.5584C12.8001 18.7153 13.0539 18.8002 13.3147 18.8H18.7999C19.1182 18.8 19.4234 18.9265 19.6484 19.1515C19.8735 19.3765 19.9999 19.6818 19.9999 20C19.9999 20.3183 19.8735 20.6235 19.6484 20.8486C19.4234 21.0736 19.1182 21.2 18.7999 21.2H13.3147C13.0539 21.1999 12.8001 21.2847 12.5918 21.4417C12.3835 21.5987 12.232 21.8193 12.1603 22.07L10.4467 28.07C10.3826 28.2939 10.385 28.5316 10.4537 28.7542C10.5224 28.9767 10.6543 29.1745 10.8334 29.3233C11.0125 29.4722 11.2311 29.5657 11.4625 29.5924C11.6938 29.6192 11.9279 29.5781 12.1363 29.474L28.9363 21.074V21.0728Z" fill="white"/>
</svg>
