<svg width="16" height="16" viewBox="0 0 16 16" fill="none" xmlns="http://www.w3.org/2000/svg">
<path d="M9.34353 6.14351C8.98721 6.49982 8.50394 6.7 8.00002 6.7C7.49611 6.7 7.01284 6.49982 6.65652 6.14351C6.3002 5.78719 6.10002 5.30391 6.10002 4.8C6.10002 4.29609 6.3002 3.81282 6.65652 3.4565C7.01284 3.10018 7.49611 2.9 8.00002 2.9C8.50394 2.9 8.98721 3.10018 9.34353 3.4565C9.69985 3.81282 9.90003 4.29609 9.90003 4.8C9.90003 5.30391 9.69985 5.78719 9.34353 6.14351ZM2.92459 13.9C2.97368 13.4018 3.09595 12.9125 3.28824 12.4483C3.54454 11.8296 3.9202 11.2673 4.39378 10.7938C4.86736 10.3202 5.42958 9.94452 6.04834 9.68822C6.6671 9.43192 7.33028 9.3 8.00002 9.3C8.66977 9.3 9.33295 9.43192 9.95171 9.68822C10.5705 9.94452 11.1327 10.3202 11.6063 10.7938C12.0798 11.2673 12.4555 11.8296 12.7118 12.4483C12.9041 12.9125 13.0264 13.4018 13.0755 13.9H2.92459Z" fill="#BDBDBD" stroke="#BDBDBD"/>
</svg>
